<svg fill="#000000" xmlns="http://www.w3.org/2000/svg" viewBox="0 0 64 64" width="64px" height="64px"><path d="M57,8H7c-1.654,0-3,1.346-3,3v36c0,1.654,1.346,3,3,3h30.343c0.954,2.038,4.446,8.2,12.44,9.976C49.855,59.992,49.928,60,50,60c0.317,0,0.621-0.151,0.812-0.416c0.233-0.324,0.252-0.756,0.046-1.099c-2.04-3.4-2.624-6.838-2.791-8.485H57c1.654,0,3-1.346,3-3V11C60,9.346,58.654,8,57,8z M58,47c0,0.551-0.448,1-1,1H47c-0.553,0-1,0.448-1,1c0,0.186,0.026,4.004,2.015,8.366c-6.655-2.526-9.053-8.651-9.078-8.717C38.79,48.259,38.417,48,38,48H7c-0.552,0-1-0.449-1-1V11c0-0.551,0.448-1,1-1h50c0.552,0,1,0.449,1,1V47z"/><path d="M49 42c-.553 0-1 .448-1 1v2c0 .552.447 1 1 1s1-.448 1-1v-2C50 42.448 49.553 42 49 42zM54 42c-.553 0-1 .448-1 1v2c0 .552.447 1 1 1s1-.448 1-1v-2C55 42.448 54.553 42 54 42zM44 42c-.553 0-1 .448-1 1v2c0 .552.447 1 1 1s1-.448 1-1v-2C45 42.448 44.553 42 44 42zM39 42c-.553 0-1 .448-1 1v2c0 .552.447 1 1 1s1-.448 1-1v-2C40 42.448 39.553 42 39 42zM34 42c-.553 0-1 .448-1 1v2c0 .552.447 1 1 1s1-.448 1-1v-2C35 42.448 34.553 42 34 42zM29 42c-.553 0-1 .448-1 1v2c0 .552.447 1 1 1s1-.448 1-1v-2C30 42.448 29.553 42 29 42zM24 42c-.553 0-1 .448-1 1v2c0 .552.447 1 1 1s1-.448 1-1v-2C25 42.448 24.553 42 24 42zM19 42c-.553 0-1 .448-1 1v2c0 .552.447 1 1 1s1-.448 1-1v-2C20 42.448 19.553 42 19 42zM14 42c-.553 0-1 .448-1 1v2c0 .552.447 1 1 1s1-.448 1-1v-2C15 42.448 14.553 42 14 42zM9 42c-.553 0-1 .448-1 1v2c0 .552.447 1 1 1s1-.448 1-1v-2C10 42.448 9.553 42 9 42zM47 24h-4c-.553 0-1 .448-1 1s.447 1 1 1h4c.553 0 1-.448 1-1S47.553 24 47 24zM17 26h22c.553 0 1-.448 1-1s-.447-1-1-1H17c-.553 0-1 .448-1 1S16.447 26 17 26zM44 31c0-.552-.447-1-1-1H17c-.553 0-1 .448-1 1s.447 1 1 1h26C43.553 32 44 31.552 44 31z"/></svg>